<?xml version="1.0" encoding="utf-8"?>
<!-- Generator: Adobe Illustrator 16.0.0, SVG Export Plug-In . SVG Version: 6.00 Build 0)  -->
<!DOCTYPE svg PUBLIC "-//W3C//DTD SVG 1.1//EN" "http://www.w3.org/Graphics/SVG/1.1/DTD/svg11.dtd">
<svg version="1.1" id="_x3C_Layer_x3E_" xmlns="http://www.w3.org/2000/svg" xmlns:xlink="http://www.w3.org/1999/xlink" x="0px"
	 y="0px" width="925.363px" height="419.041px" viewBox="0 0 925.363 419.041" enable-background="new 0 0 925.363 419.041"
	 xml:space="preserve">
<polygon fill="#FFFFFF" points="20,10 20,20 10,20 10,349.04 20,349.04 20,359.04 427.7,359.04 427.7,369.04 437.682,369.04 
	437.682,379.04 447.682,379.04 447.682,389.04 457.682,389.04 457.682,399.04 467.682,399.04 467.68,359.04 905.363,359.04 
	905.363,349.04 915.364,349.04 915.364,19.992 905.363,19.992 905.363,10 "/>
<rect x="19.997" width="885.366" height="10"/>
<rect x="10" y="10" width="10" height="10"/>
<rect y="20" width="10" height="329.04"/>
<rect x="905.363" y="10" width="10" height="10"/>
<rect x="905.363" y="349.04" width="10" height="10"/>
<rect x="915.364" y="19.992" width="10" height="329.038"/>
<rect x="10" y="349.04" width="10" height="10"/>
<g>
	<rect x="437.682" y="379.04" width="10" height="10"/>
	<rect x="447.682" y="389.04" width="10" height="10"/>
	<polygon points="467.68,359.04 467.68,399.04 457.683,399.04 457.683,409.04 477.68,409.04 477.68,369.04 905.363,369.04 
		905.363,359.04 	"/>
	<rect x="427.682" y="369.04" width="10" height="10"/>
	<rect x="20" y="359.04" width="407.7" height="10"/>
</g>
<rect y="349.04" opacity="0.2" width="10" height="10"/>
<rect x="10" y="359.04" opacity="0.2" width="10" height="10"/>
<rect x="427.682" y="379.04" opacity="0.2" width="10" height="10"/>
<rect x="437.682" y="389.04" opacity="0.2" width="10" height="10"/>
<rect x="447.682" y="399.04" opacity="0.2" width="10" height="10"/>
<rect x="457.683" y="409.041" opacity="0.2" width="19.998" height="10"/>
<rect x="19.997" y="369.04" opacity="0.2" width="407.699" height="10"/>
<rect x="477.68" y="369.04" opacity="0.2" width="427.684" height="10"/>
</svg>
