<?xml version="1.0" encoding="utf-8"?>
<!-- Generator: Adobe Illustrator 16.0.0, SVG Export Plug-In . SVG Version: 6.00 Build 0)  -->
<!DOCTYPE svg PUBLIC "-//W3C//DTD SVG 1.1//EN" "http://www.w3.org/Graphics/SVG/1.1/DTD/svg11.dtd">
<svg version="1.1" id="_x3C_Layer_x3E_" xmlns="http://www.w3.org/2000/svg" xmlns:xlink="http://www.w3.org/1999/xlink" x="0px"
	 y="0px" width="925.363px" height="419.041px" viewBox="0 0 925.363 419.041" enable-background="new 0 0 925.363 419.041"
	 xml:space="preserve">
<g>
	<g>
		<g>
			<polygon fill="#FFFFFF" points="925.363,22.848 925.363,350.496 913.938,350.496 913.938,361.92 902.515,361.92 902.515,373.345 
				22.849,373.345 22.849,361.92 11.424,361.92 11.424,350.496 0,350.496 0,22.848 11.424,22.848 11.424,11.424 22.849,11.424 
				22.849,0 902.515,0 902.515,11.424 913.938,11.424 913.938,22.848 			"/>
			<g>
				<polygon fill="#000102" points="45.697,11.424 57.121,11.424 68.545,11.424 79.97,11.424 91.395,11.424 102.818,11.424 
					114.242,11.424 125.666,11.424 137.092,11.424 148.516,11.424 159.939,11.424 171.363,11.424 182.788,11.424 194.213,11.424 
					205.637,11.424 217.061,11.424 228.484,11.424 239.909,11.424 251.334,11.424 262.758,11.424 274.182,11.424 285.606,11.424 
					297.03,11.424 308.455,11.424 319.879,11.424 331.303,11.424 342.728,11.424 354.151,11.424 365.576,11.424 377,11.424 
					388.424,11.424 399.849,11.424 411.272,11.424 422.697,11.424 434.121,11.424 445.546,11.424 456.97,11.424 468.394,11.424 
					479.818,11.424 491.242,11.424 502.667,11.424 514.091,11.424 525.515,11.424 536.939,11.424 548.364,11.424 559.788,11.424 
					571.212,11.424 582.636,11.424 594.061,11.424 605.485,11.424 616.909,11.424 628.333,11.424 639.757,11.424 651.183,11.424 
					662.606,11.424 674.03,11.424 685.454,11.424 696.878,11.424 708.304,11.424 719.728,11.424 731.151,11.424 742.575,11.424 
					753.999,11.424 765.425,11.424 776.849,11.424 788.272,11.424 799.696,11.424 811.12,11.424 822.546,11.424 833.97,11.424 
					845.394,11.424 856.817,11.424 868.242,11.424 879.667,11.424 891.091,11.424 902.515,11.424 902.515,0 891.091,0 879.667,0 
					868.242,0 856.817,0 845.394,0 833.97,0 822.546,0 811.12,0 799.696,0 788.272,0 776.849,0 765.425,0 753.999,0 742.575,0 
					731.151,0 719.728,0 708.304,0 696.878,0 685.454,0 674.03,0 662.606,0 651.183,0 639.757,0 628.333,0 616.909,0 605.485,0 
					594.061,0 582.636,0 571.212,0 559.788,0 548.364,0 536.939,0 525.515,0 514.091,0 502.667,0 491.242,0 479.818,0 468.394,0 
					456.97,0 445.546,0 434.121,0 422.697,0 411.272,0 399.849,0 388.424,0 377,0 365.576,0 354.151,0 342.728,0 331.303,0 
					319.879,0 308.455,0 297.03,0 285.606,0 274.182,0 262.758,0 251.334,0 239.909,0 228.484,0 217.061,0 205.637,0 194.213,0 
					182.788,0 171.363,0 159.939,0 148.516,0 137.092,0 125.666,0 114.242,0 102.818,0 91.395,0 79.97,0 68.545,0 57.121,0 
					45.697,0 34.273,0 22.849,0 22.849,11.424 34.273,11.424 				"/>
				<rect x="11.424" y="350.496" fill="#000102" width="11.425" height="11.424"/>
				<polygon fill="#000102" points="11.424,327.647 11.424,316.224 11.424,304.799 11.424,293.375 11.424,281.951 11.424,270.526 
					11.424,114.242 11.424,102.817 11.424,91.394 11.424,79.969 11.424,68.545 11.424,57.121 11.424,45.696 11.424,34.272 
					11.424,22.848 0,22.848 0,34.272 0,45.696 0,57.121 0,68.545 0,79.969 0,91.394 0,102.817 0,114.242 0,270.526 0,281.951 
					0,293.375 0,304.799 0,316.224 0,327.647 0,339.072 0,350.496 11.424,350.496 11.424,339.072 				"/>
				<rect x="11.424" y="11.424" fill="#000102" width="11.425" height="11.424"/>
				<polygon fill="#000102" points="879.667,361.92 868.242,361.92 856.817,361.92 845.394,361.92 833.97,361.92 822.546,361.92 
					811.12,361.92 799.696,361.92 788.272,361.92 776.849,361.92 765.425,361.92 753.999,361.92 742.575,361.92 731.151,361.92 
					719.728,361.92 708.304,361.92 696.878,361.92 685.454,361.92 674.03,361.92 662.606,361.92 651.183,361.92 639.757,361.92 
					628.333,361.92 616.909,361.92 605.485,361.92 594.061,361.92 582.636,361.92 571.212,361.92 559.788,361.92 548.364,361.92 
					536.939,361.92 525.515,361.92 514.091,361.92 502.667,361.92 491.242,361.92 479.818,361.92 468.394,361.92 456.97,361.92 
					445.546,361.92 434.121,361.92 422.697,361.92 411.272,361.92 399.849,361.92 388.424,361.92 377,361.92 365.576,361.92 
					354.151,361.92 342.728,361.92 331.303,361.92 319.879,361.92 308.455,361.92 297.03,361.92 285.606,361.92 274.182,361.92 
					262.758,361.92 251.334,361.92 239.909,361.92 228.484,361.92 217.061,361.92 205.637,361.92 194.213,361.92 182.788,361.92 
					171.363,361.92 159.939,361.92 148.516,361.92 137.092,361.92 125.666,361.92 114.242,361.92 102.818,361.92 91.395,361.92 
					79.97,361.92 68.545,361.92 57.121,361.92 45.697,361.92 34.273,361.92 22.849,361.92 22.849,373.345 34.273,373.345 
					45.697,373.345 57.121,373.345 68.545,373.345 79.97,373.345 91.395,373.345 102.818,373.345 114.242,373.345 125.666,373.345 
					137.092,373.345 148.516,373.345 159.939,373.345 171.363,373.345 182.788,373.345 194.213,373.345 205.637,373.345 
					217.061,373.345 228.484,373.345 239.909,373.345 251.334,373.345 262.758,373.345 274.182,373.345 285.606,373.345 
					297.03,373.345 308.455,373.345 319.879,373.345 331.303,373.345 342.728,373.345 354.151,373.345 365.576,373.345 377,373.345 
					388.424,373.345 399.849,373.345 411.272,373.345 422.697,373.345 434.121,373.345 445.546,373.345 456.97,373.345 
					468.394,373.345 479.818,373.345 491.242,373.345 502.667,373.345 514.091,373.345 525.515,373.345 536.939,373.345 
					548.364,373.345 559.788,373.345 571.212,373.345 582.636,373.345 594.061,373.345 605.485,373.345 616.909,373.345 
					628.333,373.345 639.757,373.345 651.183,373.345 662.606,373.345 674.03,373.345 685.454,373.345 696.878,373.345 
					708.304,373.345 719.728,373.345 731.151,373.345 742.575,373.345 753.999,373.345 765.425,373.345 776.849,373.345 
					788.272,373.345 799.696,373.345 811.12,373.345 822.546,373.345 833.97,373.345 845.394,373.345 856.817,373.345 
					868.242,373.345 879.667,373.345 891.091,373.345 902.515,373.345 902.515,361.92 891.091,361.92 				"/>
				<rect x="902.515" y="350.496" fill="#000102" width="11.424" height="11.424"/>
				<polygon fill="#000102" points="913.938,22.848 913.938,34.272 913.938,45.696 913.938,57.121 913.938,68.545 913.938,79.969 
					913.938,91.394 913.938,102.817 913.938,114.242 913.938,270.526 913.938,281.951 913.938,293.375 913.938,304.799 
					913.938,316.224 913.938,327.647 913.938,339.072 913.938,350.496 925.363,350.496 925.363,339.072 925.363,327.647 
					925.363,316.224 925.363,304.799 925.363,293.375 925.363,281.951 925.363,270.526 925.363,114.242 925.363,102.817 
					925.363,91.394 925.363,79.969 925.363,68.545 925.363,57.121 925.363,45.696 925.363,34.272 925.363,22.848 				"/>
				<rect x="902.515" y="11.424" fill="#000102" width="11.424" height="11.424"/>
			</g>
		</g>
	</g>
	<g>
		<rect x="444.126" y="396.193" fill="#FFFFFF" width="11.424" height="11.424"/>
		<rect x="455.55" y="407.617" fill="#000102" width="11.426" height="11.424"/>
		<rect x="466.976" y="396.193" fill="#000102" width="11.424" height="11.424"/>
		<rect x="478.399" y="384.77" fill="#000102" width="11.424" height="11.424"/>
		<rect x="489.823" y="373.345" fill="#000102" width="11.424" height="11.425"/>
		<rect x="444.126" y="396.193" fill="#000102" width="11.424" height="11.424"/>
		<rect x="432.702" y="384.77" fill="#000102" width="11.424" height="11.424"/>
		<rect x="421.278" y="373.345" fill="#000102" width="11.424" height="11.425"/>
		<polygon fill="#FFFFFF" points="489.823,350.496 478.399,350.496 466.976,350.496 455.55,350.496 444.126,350.496 
			432.702,350.496 421.278,350.496 421.278,361.92 421.278,373.345 432.702,373.345 432.702,384.77 444.126,384.77 444.126,396.193 
			455.55,396.193 455.55,407.617 466.976,407.617 466.976,396.193 478.399,396.193 478.399,384.77 489.823,384.77 489.823,373.345 
			501.247,373.345 501.247,361.92 501.247,350.496 		"/>
	</g>
</g>
</svg>
