<?xml version="1.0" encoding="utf-8"?>
<!-- Generator: Adobe Illustrator 16.0.0, SVG Export Plug-In . SVG Version: 6.00 Build 0)  -->
<!DOCTYPE svg PUBLIC "-//W3C//DTD SVG 1.1//EN" "http://www.w3.org/Graphics/SVG/1.1/DTD/svg11.dtd">
<svg version="1.1" id="_x3C_Layer_x3E_" xmlns="http://www.w3.org/2000/svg" xmlns:xlink="http://www.w3.org/1999/xlink" x="0px"
	 y="0px" width="925.363px" height="419.041px" viewBox="0 0 925.363 419.041" enable-background="new 0 0 925.363 419.041"
	 xml:space="preserve">
<g>
	<g>
		<g>
			<polygon fill="#FFFFFF" points="925.363,22.848 925.363,350.496 913.938,350.496 913.938,361.92 902.515,361.92 902.515,373.345 
				22.849,373.345 22.849,361.92 11.424,361.92 11.424,350.496 0,350.496 0,22.848 11.424,22.848 11.424,11.424 22.849,11.424 
				22.849,0 902.515,0 902.515,11.424 913.938,11.424 913.938,22.848 			"/>
			<g>
				<rect x="91.395" fill="#000102" width="11.424" height="11.424"/>
				<rect x="102.818" fill="#000102" width="11.424" height="11.424"/>
				<rect x="114.242" fill="#000102" width="11.424" height="11.424"/>
				<rect x="125.666" fill="#000102" width="11.426" height="11.424"/>
				<rect x="79.97" fill="#000102" width="11.425" height="11.424"/>
				<rect x="68.545" fill="#000102" width="11.425" height="11.424"/>
				<rect x="34.273" fill="#000102" width="11.424" height="11.424"/>
				<rect x="22.849" fill="#000102" width="11.425" height="11.424"/>
				<rect x="125.666" y="361.92" fill="#000102" width="11.426" height="11.425"/>
				<rect x="114.242" y="361.92" fill="#000102" width="11.424" height="11.425"/>
				<rect x="102.818" y="361.92" fill="#000102" width="11.424" height="11.425"/>
				<rect x="91.395" y="361.92" fill="#000102" width="11.424" height="11.425"/>
				<rect x="79.97" y="361.92" fill="#000102" width="11.425" height="11.425"/>
				<rect x="68.545" y="361.92" fill="#000102" width="11.425" height="11.425"/>
				<rect x="57.121" fill="#000102" width="11.424" height="11.424"/>
				<rect x="45.697" fill="#000102" width="11.424" height="11.424"/>
				<rect x="57.121" y="361.92" fill="#000102" width="11.424" height="11.425"/>
				<rect x="45.697" y="361.92" fill="#000102" width="11.424" height="11.425"/>
				<rect x="34.273" y="361.92" fill="#000102" width="11.424" height="11.425"/>
				<rect x="22.849" y="361.92" fill="#000102" width="11.425" height="11.425"/>
				<rect x="11.424" y="350.496" fill="#000102" width="11.425" height="11.424"/>
				<rect y="91.394" fill="#000102" width="11.424" height="11.424"/>
				<rect y="102.817" fill="#000102" width="11.424" height="11.425"/>
				<rect y="114.242" fill="#000102" width="11.424" height="156.284"/>
				<rect y="270.526" fill="#000102" width="11.424" height="11.425"/>
				<rect y="281.951" fill="#000102" width="11.424" height="11.424"/>
				<rect y="293.375" fill="#000102" width="11.424" height="11.424"/>
				<rect y="304.799" fill="#000102" width="11.424" height="11.425"/>
				<rect y="316.224" fill="#000102" width="11.424" height="11.424"/>
				<rect y="327.647" fill="#000102" width="11.424" height="11.425"/>
				<rect y="339.072" fill="#000102" width="11.424" height="11.424"/>
				<rect y="57.121" fill="#000102" width="11.424" height="11.424"/>
				<rect y="45.696" fill="#000102" width="11.424" height="11.425"/>
				<rect x="913.938" y="57.121" fill="#000102" width="11.425" height="11.424"/>
				<rect x="913.938" y="45.696" fill="#000102" width="11.425" height="11.425"/>
				<rect y="79.969" fill="#000102" width="11.424" height="11.425"/>
				<rect y="68.545" fill="#000102" width="11.424" height="11.424"/>
				<rect y="34.272" fill="#000102" width="11.424" height="11.424"/>
				<rect y="22.848" fill="#000102" width="11.424" height="11.425"/>
				<rect x="11.424" y="11.424" fill="#000102" width="11.425" height="11.424"/>
				<rect x="159.939" fill="#000102" width="11.424" height="11.424"/>
				<rect x="148.516" fill="#000102" width="11.424" height="11.424"/>
				<rect x="137.092" fill="#000102" width="11.424" height="11.424"/>
				<rect x="171.363" fill="#000102" width="11.425" height="11.424"/>
				<rect x="868.242" fill="#000102" width="11.425" height="11.424"/>
				<rect x="879.667" fill="#000102" width="11.424" height="11.424"/>
				<rect x="868.242" y="361.92" fill="#000102" width="11.425" height="11.425"/>
				<rect x="879.667" y="361.92" fill="#000102" width="11.424" height="11.425"/>
				<rect x="822.546" fill="#000102" width="11.424" height="11.424"/>
				<rect x="833.97" fill="#000102" width="11.424" height="11.424"/>
				<rect x="891.091" fill="#000102" width="11.424" height="11.424"/>
				<rect x="137.092" y="361.92" fill="#000102" width="11.424" height="11.425"/>
				<rect x="148.516" y="361.92" fill="#000102" width="11.424" height="11.425"/>
				<rect x="159.939" y="361.92" fill="#000102" width="11.424" height="11.425"/>
				<rect x="171.363" y="361.92" fill="#000102" width="11.425" height="11.425"/>
				<rect x="822.546" y="361.92" fill="#000102" width="11.424" height="11.425"/>
				<rect x="833.97" y="361.92" fill="#000102" width="11.424" height="11.425"/>
				<rect x="845.394" fill="#000102" width="11.424" height="11.424"/>
				<rect x="856.817" fill="#000102" width="11.425" height="11.424"/>
				<rect x="845.394" y="361.92" fill="#000102" width="11.424" height="11.425"/>
				<rect x="856.817" y="361.92" fill="#000102" width="11.425" height="11.425"/>
				<rect x="891.091" y="361.92" fill="#000102" width="11.424" height="11.425"/>
				<rect x="468.394" fill="#000102" width="11.425" height="11.424"/>
				<rect x="479.818" fill="#000102" width="11.424" height="11.424"/>
				<rect x="468.394" y="361.92" fill="#000102" width="11.425" height="11.425"/>
				<rect x="479.818" y="361.92" fill="#000102" width="11.424" height="11.425"/>
				<rect x="445.546" fill="#000102" width="11.424" height="11.424"/>
				<rect x="456.97" fill="#000102" width="11.424" height="11.424"/>
				<rect x="491.242" fill="#000102" width="11.425" height="11.424"/>
				<rect x="445.546" y="361.92" fill="#000102" width="11.424" height="11.425"/>
				<rect x="456.97" y="361.92" fill="#000102" width="11.424" height="11.425"/>
				<rect x="491.242" y="361.92" fill="#000102" width="11.425" height="11.425"/>
				<rect x="411.272" fill="#000102" width="11.425" height="11.424"/>
				<rect x="422.697" fill="#000102" width="11.424" height="11.424"/>
				<rect x="411.272" y="361.92" fill="#000102" width="11.425" height="11.425"/>
				<rect x="422.697" y="361.92" fill="#000102" width="11.424" height="11.425"/>
				<rect x="388.424" fill="#000102" width="11.425" height="11.424"/>
				<rect x="399.849" fill="#000102" width="11.424" height="11.424"/>
				<rect x="434.121" fill="#000102" width="11.425" height="11.424"/>
				<rect x="388.424" y="361.92" fill="#000102" width="11.425" height="11.425"/>
				<rect x="399.849" y="361.92" fill="#000102" width="11.424" height="11.425"/>
				<rect x="434.121" y="361.92" fill="#000102" width="11.425" height="11.425"/>
				<rect x="354.151" fill="#000102" width="11.425" height="11.424"/>
				<rect x="365.576" fill="#000102" width="11.424" height="11.424"/>
				<rect x="354.151" y="361.92" fill="#000102" width="11.425" height="11.425"/>
				<rect x="365.576" y="361.92" fill="#000102" width="11.424" height="11.425"/>
				<rect x="331.303" fill="#000102" width="11.425" height="11.424"/>
				<rect x="342.728" fill="#000102" width="11.424" height="11.424"/>
				<rect x="377" fill="#000102" width="11.424" height="11.424"/>
				<rect x="331.303" y="361.92" fill="#000102" width="11.425" height="11.425"/>
				<rect x="342.728" y="361.92" fill="#000102" width="11.424" height="11.425"/>
				<rect x="377" y="361.92" fill="#000102" width="11.424" height="11.425"/>
				<rect x="297.03" fill="#000102" width="11.425" height="11.424"/>
				<rect x="308.455" fill="#000102" width="11.424" height="11.424"/>
				<rect x="297.03" y="361.92" fill="#000102" width="11.425" height="11.425"/>
				<rect x="308.455" y="361.92" fill="#000102" width="11.424" height="11.425"/>
				<rect x="274.182" fill="#000102" width="11.425" height="11.424"/>
				<rect x="285.606" fill="#000102" width="11.424" height="11.424"/>
				<rect x="319.879" fill="#000102" width="11.424" height="11.424"/>
				<rect x="274.182" y="361.92" fill="#000102" width="11.425" height="11.425"/>
				<rect x="285.606" y="361.92" fill="#000102" width="11.424" height="11.425"/>
				<rect x="319.879" y="361.92" fill="#000102" width="11.424" height="11.425"/>
				<rect x="239.909" fill="#000102" width="11.425" height="11.424"/>
				<rect x="251.334" fill="#000102" width="11.424" height="11.424"/>
				<rect x="239.909" y="361.92" fill="#000102" width="11.425" height="11.425"/>
				<rect x="251.334" y="361.92" fill="#000102" width="11.424" height="11.425"/>
				<rect x="217.061" fill="#000102" width="11.424" height="11.424"/>
				<rect x="228.484" fill="#000102" width="11.425" height="11.424"/>
				<rect x="262.758" fill="#000102" width="11.424" height="11.424"/>
				<rect x="719.728" fill="#000102" width="11.424" height="11.424"/>
				<rect x="731.151" fill="#000102" width="11.424" height="11.424"/>
				<rect x="696.878" fill="#000102" width="11.426" height="11.424"/>
				<rect x="708.304" fill="#000102" width="11.424" height="11.424"/>
				<rect x="742.575" fill="#000102" width="11.424" height="11.424"/>
				<rect x="662.606" fill="#000102" width="11.424" height="11.424"/>
				<rect x="674.03" fill="#000102" width="11.424" height="11.424"/>
				<rect x="639.757" fill="#000102" width="11.426" height="11.424"/>
				<rect x="651.183" fill="#000102" width="11.424" height="11.424"/>
				<rect x="685.454" fill="#000102" width="11.424" height="11.424"/>
				<rect x="605.485" fill="#000102" width="11.424" height="11.424"/>
				<rect x="616.909" fill="#000102" width="11.424" height="11.424"/>
				<rect x="582.636" fill="#000102" width="11.425" height="11.424"/>
				<rect x="594.061" fill="#000102" width="11.425" height="11.424"/>
				<rect x="628.333" fill="#000102" width="11.424" height="11.424"/>
				<rect x="788.272" fill="#000102" width="11.424" height="11.424"/>
				<rect x="799.696" fill="#000102" width="11.424" height="11.424"/>
				<rect x="765.425" fill="#000102" width="11.424" height="11.424"/>
				<rect x="776.849" fill="#000102" width="11.424" height="11.424"/>
				<rect x="811.12" fill="#000102" width="11.426" height="11.424"/>
				<rect x="731.151" fill="#000102" width="11.424" height="11.424"/>
				<rect x="742.575" fill="#000102" width="11.424" height="11.424"/>
				<rect x="708.304" fill="#000102" width="11.424" height="11.424"/>
				<rect x="719.728" fill="#000102" width="11.424" height="11.424"/>
				<rect x="753.999" fill="#000102" width="11.426" height="11.424"/>
				<rect x="685.454" fill="#000102" width="11.424" height="11.424"/>
				<rect x="696.878" fill="#000102" width="11.426" height="11.424"/>
				<rect x="548.364" fill="#000102" width="11.424" height="11.424"/>
				<rect x="559.788" fill="#000102" width="11.424" height="11.424"/>
				<rect x="525.515" fill="#000102" width="11.425" height="11.424"/>
				<rect x="536.939" fill="#000102" width="11.425" height="11.424"/>
				<rect x="571.212" fill="#000102" width="11.424" height="11.424"/>
				<rect x="502.667" fill="#000102" width="11.424" height="11.424"/>
				<rect x="514.091" fill="#000102" width="11.424" height="11.424"/>
				<rect x="217.061" y="361.92" fill="#000102" width="11.424" height="11.425"/>
				<rect x="228.484" y="361.92" fill="#000102" width="11.425" height="11.425"/>
				<rect x="262.758" y="361.92" fill="#000102" width="11.424" height="11.425"/>
				<rect x="182.788" fill="#000102" width="11.425" height="11.424"/>
				<rect x="194.213" fill="#000102" width="11.424" height="11.424"/>
				<rect x="182.788" y="361.92" fill="#000102" width="11.425" height="11.425"/>
				<rect x="194.213" y="361.92" fill="#000102" width="11.424" height="11.425"/>
				<rect x="159.939" fill="#000102" width="11.424" height="11.424"/>
				<rect x="171.363" fill="#000102" width="11.425" height="11.424"/>
				<rect x="205.637" fill="#000102" width="11.424" height="11.424"/>
				<rect x="159.939" y="361.92" fill="#000102" width="11.424" height="11.425"/>
				<rect x="171.363" y="361.92" fill="#000102" width="11.425" height="11.425"/>
				<rect x="205.637" y="361.92" fill="#000102" width="11.424" height="11.425"/>
				<rect x="788.272" y="361.92" fill="#000102" width="11.424" height="11.425"/>
				<rect x="799.696" y="361.92" fill="#000102" width="11.424" height="11.425"/>
				<rect x="765.425" y="361.92" fill="#000102" width="11.424" height="11.425"/>
				<rect x="776.849" y="361.92" fill="#000102" width="11.424" height="11.425"/>
				<rect x="811.12" y="361.92" fill="#000102" width="11.426" height="11.425"/>
				<rect x="731.151" y="361.92" fill="#000102" width="11.424" height="11.425"/>
				<rect x="742.575" y="361.92" fill="#000102" width="11.424" height="11.425"/>
				<rect x="708.304" y="361.92" fill="#000102" width="11.424" height="11.425"/>
				<rect x="719.728" y="361.92" fill="#000102" width="11.424" height="11.425"/>
				<rect x="753.999" y="361.92" fill="#000102" width="11.426" height="11.425"/>
				<rect x="674.03" y="361.92" fill="#000102" width="11.424" height="11.425"/>
				<rect x="685.454" y="361.92" fill="#000102" width="11.424" height="11.425"/>
				<rect x="651.183" y="361.92" fill="#000102" width="11.424" height="11.425"/>
				<rect x="662.606" y="361.92" fill="#000102" width="11.424" height="11.425"/>
				<rect x="696.878" y="361.92" fill="#000102" width="11.426" height="11.425"/>
				<rect x="616.909" y="361.92" fill="#000102" width="11.424" height="11.425"/>
				<rect x="628.333" y="361.92" fill="#000102" width="11.424" height="11.425"/>
				<rect x="594.061" y="361.92" fill="#000102" width="11.425" height="11.425"/>
				<rect x="605.485" y="361.92" fill="#000102" width="11.424" height="11.425"/>
				<rect x="639.757" y="361.92" fill="#000102" width="11.426" height="11.425"/>
				<rect x="559.788" y="361.92" fill="#000102" width="11.424" height="11.425"/>
				<rect x="571.212" y="361.92" fill="#000102" width="11.424" height="11.425"/>
				<rect x="536.939" y="361.92" fill="#000102" width="11.425" height="11.425"/>
				<rect x="548.364" y="361.92" fill="#000102" width="11.424" height="11.425"/>
				<rect x="582.636" y="361.92" fill="#000102" width="11.425" height="11.425"/>
				<rect x="502.667" y="361.92" fill="#000102" width="11.424" height="11.425"/>
				<rect x="514.091" y="361.92" fill="#000102" width="11.424" height="11.425"/>
				<rect x="525.515" y="361.92" fill="#000102" width="11.425" height="11.425"/>
				<rect x="902.515" y="350.496" fill="#000102" width="11.424" height="11.424"/>
				<rect x="913.938" y="91.394" fill="#000102" width="11.425" height="11.424"/>
				<rect x="913.938" y="102.817" fill="#000102" width="11.425" height="11.425"/>
				<rect x="913.938" y="114.242" fill="#000102" width="11.425" height="156.284"/>
				<rect x="913.938" y="270.526" fill="#000102" width="11.425" height="11.425"/>
				<rect x="913.938" y="281.951" fill="#000102" width="11.425" height="11.424"/>
				<rect x="913.938" y="293.375" fill="#000102" width="11.425" height="11.424"/>
				<rect x="913.938" y="304.799" fill="#000102" width="11.425" height="11.425"/>
				<rect x="913.938" y="316.224" fill="#000102" width="11.425" height="11.424"/>
				<rect x="913.938" y="327.647" fill="#000102" width="11.425" height="11.425"/>
				<rect x="913.938" y="339.072" fill="#000102" width="11.425" height="11.424"/>
				<rect x="913.938" y="79.969" fill="#000102" width="11.425" height="11.425"/>
				<rect x="913.938" y="68.545" fill="#000102" width="11.425" height="11.424"/>
				<rect x="913.938" y="34.272" fill="#000102" width="11.425" height="11.424"/>
				<rect x="913.938" y="22.848" fill="#000102" width="11.425" height="11.425"/>
				<rect x="902.515" y="11.424" fill="#000102" width="11.424" height="11.424"/>
			</g>
		</g>
	</g>
	<g>
		<rect x="444.126" y="396.193" fill="#FFFFFF" width="11.424" height="11.424"/>
		<rect x="455.55" y="407.617" fill="#000102" width="11.426" height="11.424"/>
		<rect x="466.976" y="396.193" fill="#000102" width="11.424" height="11.424"/>
		<rect x="478.399" y="384.77" fill="#000102" width="11.424" height="11.424"/>
		<rect x="489.823" y="373.345" fill="#000102" width="11.424" height="11.425"/>
		<rect x="444.126" y="396.193" fill="#000102" width="11.424" height="11.424"/>
		<rect x="432.702" y="384.77" fill="#000102" width="11.424" height="11.424"/>
		<rect x="421.278" y="373.345" fill="#000102" width="11.424" height="11.425"/>
		<polygon fill="#FFFFFF" points="489.823,350.496 478.399,350.496 466.976,350.496 455.55,350.496 444.126,350.496 
			432.702,350.496 421.278,350.496 421.278,361.92 421.278,373.345 432.702,373.345 432.702,384.77 444.126,384.77 444.126,396.193 
			455.55,396.193 455.55,407.617 466.976,407.617 466.976,396.193 478.399,396.193 478.399,384.77 489.823,384.77 489.823,373.345 
			501.247,373.345 501.247,361.92 501.247,350.496 		"/>
	</g>
</g>
</svg>
